<mxfile host="app.diagrams.net" modified="2024-04-24T03:18:43.151Z" agent="Mozilla/5.0 (Windows NT 10.0; Win64; x64) AppleWebKit/537.36 (KHTML, like Gecko) Chrome/124.0.0.0 Safari/537.36 Edg/124.0.0.0" etag="EVvy_5JnZYTHjTsBLiGM" version="24.2.8" type="device">
  <diagram name="Page-1" id="KZJ2HOKWeHplokxRBnXv">
    <mxGraphModel dx="1711" dy="502" grid="1" gridSize="10" guides="1" tooltips="1" connect="1" arrows="1" fold="1" page="1" pageScale="1" pageWidth="850" pageHeight="1100" math="0" shadow="0">
      <root>
        <mxCell id="0" />
        <mxCell id="1" parent="0" />
        <mxCell id="zHKEN62nh1VX8-qW5QKt-3" value="&lt;pre style=&quot;box-sizing: unset; font-family: var(--jp-code-font-family); font-size: 12px; line-height: normal; color: var(--jp-content-font-color1); border: none; margin: 0px; padding: 0px; overflow: auto; word-break: break-all; overflow-wrap: break-word; white-space: pre-wrap; font-style: normal; font-variant-ligatures: normal; font-variant-caps: normal; letter-spacing: normal; orphans: 2; text-indent: 0px; text-transform: none; widows: 2; word-spacing: 0px; -webkit-text-stroke-width: 0px; background-color: rgb(255, 255, 255); text-decoration-thickness: initial; text-decoration-style: initial; text-decoration-color: initial; --darkreader-inline-color: var(--darkreader-text--jp-content-font-color1); --darkreader-inline-border-top: none; --darkreader-inline-border-right: none; --darkreader-inline-border-bottom: none; --darkreader-inline-border-left: none; --darkreader-inline-bgcolor: #28292a;&quot; data-darkreader-inline-color=&quot;&quot; data-darkreader-inline-border-top=&quot;&quot; data-darkreader-inline-border-right=&quot;&quot; data-darkreader-inline-border-bottom=&quot;&quot; data-darkreader-inline-border-left=&quot;&quot; data-darkreader-inline-bgcolor=&quot;&quot;&gt;&lt;div class=&quot;lm-Widget p-Widget lm-Panel p-Panel jp-Cell-outputWrapper&quot; style=&quot;box-sizing: border-box; position: relative; overflow: visible; cursor: default; display: flex; flex-direction: row; padding: 0px; margin: 5px 0px 0px; font-size: 12px;&quot;&gt;&lt;div class=&quot;lm-Widget p-Widget jp-OutputArea jp-Cell-outputArea&quot; style=&quot;box-sizing: border-box; position: relative; overflow: hidden auto; cursor: default; flex: 1 1 auto; font-size: 12px;&quot;&gt;&lt;div class=&quot;lm-Widget p-Widget lm-Panel p-Panel jp-OutputArea-child&quot; style=&quot;box-sizing: border-box; position: relative; overflow: hidden; cursor: default; display: flex; flex-direction: row; font-size: 12px;&quot;&gt;&lt;div class=&quot;lm-Widget p-Widget jp-RenderedText jp-mod-trusted jp-OutputArea-output&quot; data-mime-type=&quot;application/vnd.jupyter.stdout&quot; style=&quot;box-sizing: border-box; position: relative; overflow: auto; cursor: default; padding-left: var(--jp-code-padding); line-height: var(--jp-code-line-height); font-family: var(--jp-code-font-family); height: auto; user-select: text; flex-grow: 1; flex-shrink: 1; font-size: 12px;&quot;&gt;&lt;pre style=&quot;box-sizing: unset; font-family: var(--jp-code-font-family); font-size: 12px; line-height: normal; color: var(--jp-content-font-color1); border: none; margin-top: 0px; margin-bottom: 0px; padding: 0px; overflow: auto; word-break: break-all; overflow-wrap: break-word; text-wrap: wrap; --darkreader-inline-color: var(--darkreader-text--jp-content-font-color1); --darkreader-inline-border-top: none; --darkreader-inline-border-right: none; --darkreader-inline-border-bottom: none; --darkreader-inline-border-left: none;&quot; data-darkreader-inline-color=&quot;&quot; data-darkreader-inline-border-top=&quot;&quot; data-darkreader-inline-border-right=&quot;&quot; data-darkreader-inline-border-bottom=&quot;&quot; data-darkreader-inline-border-left=&quot;&quot;&gt;&lt;b&gt;FactFlight&lt;/b&gt;&lt;/pre&gt;&lt;pre style=&quot;font-weight: 400; box-sizing: unset; font-family: var(--jp-code-font-family); font-size: 12px; line-height: normal; color: var(--jp-content-font-color1); border: none; margin-top: 0px; margin-bottom: 0px; padding: 0px; overflow: auto; word-break: break-all; overflow-wrap: break-word; text-wrap: wrap; --darkreader-inline-color: var(--darkreader-text--jp-content-font-color1); --darkreader-inline-border-top: none; --darkreader-inline-border-right: none; --darkreader-inline-border-bottom: none; --darkreader-inline-border-left: none;&quot; data-darkreader-inline-color=&quot;&quot; data-darkreader-inline-border-top=&quot;&quot; data-darkreader-inline-border-right=&quot;&quot; data-darkreader-inline-border-bottom=&quot;&quot; data-darkreader-inline-border-left=&quot;&quot;&gt;&lt;span data-darkreader-inline-bgcolor=&quot;&quot; data-darkreader-inline-color=&quot;&quot; style=&quot;color: var(--jp-content-font-color1); font-family: var(--jp-code-font-family); background-color: rgb(255, 255, 255); --darkreader-inline-color: var(--darkreader-text--jp-content-font-color1); --darkreader-inline-bgcolor: #28292a;&quot;&gt;TimeID PK FK&lt;/span&gt;&lt;/pre&gt;&lt;pre style=&quot;font-weight: 400; box-sizing: unset; font-family: var(--jp-code-font-family); font-size: 12px; line-height: normal; color: var(--jp-content-font-color1); border: none; margin-top: 0px; margin-bottom: 0px; padding: 0px; overflow: auto; word-break: break-all; overflow-wrap: break-word; text-wrap: wrap; --darkreader-inline-color: var(--darkreader-text--jp-content-font-color1); --darkreader-inline-border-top: none; --darkreader-inline-border-right: none; --darkreader-inline-border-bottom: none; --darkreader-inline-border-left: none;&quot; data-darkreader-inline-color=&quot;&quot; data-darkreader-inline-border-top=&quot;&quot; data-darkreader-inline-border-right=&quot;&quot; data-darkreader-inline-border-bottom=&quot;&quot; data-darkreader-inline-border-left=&quot;&quot;&gt;AircraftID PK FK&lt;/pre&gt;&lt;pre style=&quot;font-weight: 400; box-sizing: unset; font-family: var(--jp-code-font-family); font-size: 12px; line-height: normal; color: var(--jp-content-font-color1); border: none; margin-top: 0px; margin-bottom: 0px; padding: 0px; overflow: auto; word-break: break-all; overflow-wrap: break-word; text-wrap: wrap; --darkreader-inline-color: var(--darkreader-text--jp-content-font-color1); --darkreader-inline-border-top: none; --darkreader-inline-border-right: none; --darkreader-inline-border-bottom: none; --darkreader-inline-border-left: none;&quot; data-darkreader-inline-color=&quot;&quot; data-darkreader-inline-border-top=&quot;&quot; data-darkreader-inline-border-right=&quot;&quot; data-darkreader-inline-border-bottom=&quot;&quot; data-darkreader-inline-border-left=&quot;&quot;&gt;WeatherID PK FK&lt;/pre&gt;&lt;pre style=&quot;font-weight: 400; box-sizing: unset; font-family: var(--jp-code-font-family); font-size: 12px; line-height: normal; color: var(--jp-content-font-color1); border: none; margin-top: 0px; margin-bottom: 0px; padding: 0px; overflow: auto; word-break: break-all; overflow-wrap: break-word; text-wrap: wrap; --darkreader-inline-color: var(--darkreader-text--jp-content-font-color1); --darkreader-inline-border-top: none; --darkreader-inline-border-right: none; --darkreader-inline-border-bottom: none; --darkreader-inline-border-left: none;&quot; data-darkreader-inline-color=&quot;&quot; data-darkreader-inline-border-top=&quot;&quot; data-darkreader-inline-border-right=&quot;&quot; data-darkreader-inline-border-bottom=&quot;&quot; data-darkreader-inline-border-left=&quot;&quot;&gt;&lt;span data-darkreader-inline-bgcolor=&quot;&quot; style=&quot;white-space-collapse: collapse; background-color: rgb(41, 43, 45); --darkreader-inline-bgcolor: #2e3132;&quot;&gt;Airline&lt;/span&gt;&lt;br style=&quot;font-size: 12px;&quot;&gt;DepAirportID PK FK&lt;br style=&quot;font-size: 12px;&quot;&gt;DepDelay&lt;br style=&quot;font-size: 12px;&quot;&gt;DepDelayTag&lt;br style=&quot;font-size: 12px;&quot;&gt;DepDelayType&lt;br style=&quot;font-size: 12px;&quot;&gt;ArrAirportID PK FK&lt;br style=&quot;font-size: 12px;&quot;&gt;ArrDelay&lt;br style=&quot;font-size: 12px;&quot;&gt;ArrDelayType&lt;br style=&quot;font-size: 12px;&quot;&gt;FlightDuration&lt;br style=&quot;font-size: 12px;&quot;&gt;DistanceType&lt;br style=&quot;font-size: 12px;&quot;&gt;DelayCarrier&lt;br style=&quot;font-size: 12px;&quot;&gt;DelayWeather&lt;br style=&quot;font-size: 12px;&quot;&gt;DelayNAS&lt;br style=&quot;font-size: 12px;&quot;&gt;DelaySecurity&lt;br style=&quot;font-size: 12px;&quot;&gt;DelayLastAircraft&lt;br style=&quot;font-size: 12px;&quot;&gt;&lt;br style=&quot;font-size: 12px;&quot;&gt;&lt;br style=&quot;font-size: 12px;&quot;&gt;&lt;br style=&quot;font-size: 12px;&quot;&gt;&lt;br style=&quot;font-size: 12px;&quot;&gt;&lt;/pre&gt;&lt;/div&gt;&lt;/div&gt;&lt;/div&gt;&lt;/div&gt;&lt;div class=&quot;lm-Widget p-Widget jp-CellFooter jp-Cell-footer&quot; style=&quot;font-weight: 400; box-sizing: border-box; position: relative; cursor: default; width: 1152px; padding: 0px; margin: 0px; border: none; outline: none; background: transparent; --darkreader-inline-border-top: none; --darkreader-inline-border-right: none; --darkreader-inline-border-bottom: none; --darkreader-inline-border-left: none; --darkreader-inline-outline: initial; --darkreader-inline-bgimage: initial; --darkreader-inline-bgcolor: transparent; font-size: 12px; overflow: visible !important; height: 32px !important;&quot; data-darkreader-inline-border-top=&quot;&quot; data-darkreader-inline-border-right=&quot;&quot; data-darkreader-inline-border-bottom=&quot;&quot; data-darkreader-inline-border-left=&quot;&quot; data-darkreader-inline-outline=&quot;&quot; data-darkreader-inline-bgimage=&quot;&quot; data-darkreader-inline-bgcolor=&quot;&quot;&gt;&lt;div class=&quot;&quot; style=&quot;height: inherit; --mdc-theme-on-primary: #FFFFFF; --mdc-theme-on-surface: rgba(0, 0, 0, 0.87); --mdc-theme-text-primary-on-background: rgba(0, 0, 0, 0.87); --mdc-theme-text-secondary-on-background: rgba(0, 0, 0, 0.54); --mdc-theme-text-hint-on-background: rgba(0, 0, 0, 0.38); --mdc-theme-text-disabled-on-background: rgba(0, 0, 0, 0.38); --mdc-theme-text-icon-on-background: rgba(0, 0, 0, 0.38); --mdc-theme-primary: #20BEFF; --mdc-theme-error: #E24B0D; --mdc-theme-background: #F8F8F8; --mdc-theme-surface: #FFFFFF; --mdc-theme-primary-bg: #20BEFF; --mdc-theme-secondary-bg: #919294; font-size: 12px;&quot;&gt;&lt;div id=&quot;rmwcPortal&quot; style=&quot;font-family: -apple-system, BlinkMacSystemFont, &amp;quot;Segoe UI&amp;quot;, Helvetica, Arial, sans-serif, &amp;quot;Apple Color Emoji&amp;quot;, &amp;quot;Segoe UI Emoji&amp;quot;, &amp;quot;Segoe UI Symbol&amp;quot;; font-size: 12px; white-space-collapse: collapse;&quot;&gt;&lt;/div&gt;&lt;div id=&quot;kaggle-portal-root-global&quot; style=&quot;font-family: -apple-system, BlinkMacSystemFont, &amp;quot;Segoe UI&amp;quot;, Helvetica, Arial, sans-serif, &amp;quot;Apple Color Emoji&amp;quot;, &amp;quot;Segoe UI Emoji&amp;quot;, &amp;quot;Segoe UI Symbol&amp;quot;; font-size: 12px; white-space-collapse: collapse;&quot;&gt;&lt;/div&gt;&lt;div class=&quot;light&quot; style=&quot;font-family: -apple-system, BlinkMacSystemFont, &amp;quot;Segoe UI&amp;quot;, Helvetica, Arial, sans-serif, &amp;quot;Apple Color Emoji&amp;quot;, &amp;quot;Segoe UI Emoji&amp;quot;, &amp;quot;Segoe UI Symbol&amp;quot;; font-size: 12px; white-space-collapse: collapse;&quot;&gt;&lt;div class=&quot;sc-gLLuof ipJhcm&quot; style=&quot;margin-left: 60px; margin-top: 5px; opacity: 1; font-size: 12px;&quot;&gt;&lt;/div&gt;&lt;/div&gt;&lt;/div&gt;&lt;/div&gt;&lt;/pre&gt;" style="text;whiteSpace=wrap;html=1;fillColor=none;rounded=0;labelBorderColor=none;fontSize=12;align=center;" parent="1" vertex="1">
          <mxGeometry x="70" y="340" width="160" height="400" as="geometry" />
        </mxCell>
        <mxCell id="zHKEN62nh1VX8-qW5QKt-4" value="&lt;b&gt;DimTime&lt;/b&gt;&lt;div&gt;TimeID PK&lt;br&gt;&lt;div style=&quot;font-size: 12px;&quot;&gt;FlightDate&lt;/div&gt;&lt;div style=&quot;font-size: 12px;&quot;&gt;&lt;pre data-darkreader-inline-bgcolor=&quot;&quot; style=&quot;border: none; background-color: rgb(40, 41, 42); box-sizing: unset; font-family: var(--jp-code-font-family); line-height: normal; margin-top: 0px; margin-bottom: 0px; padding: 0px; overflow: auto; word-break: break-all; overflow-wrap: break-word; text-wrap: wrap; --darkreader-inline-border-top: none; --darkreader-inline-border-right: none; --darkreader-inline-border-bottom: none; --darkreader-inline-border-left: none; --darkreader-inline-bgcolor: #2d2f31;&quot; data-darkreader-inline-border-top=&quot;&quot; data-darkreader-inline-border-right=&quot;&quot; data-darkreader-inline-border-bottom=&quot;&quot; data-darkreader-inline-border-left=&quot;&quot;&gt;DepTimeLabel&lt;/pre&gt;&lt;/div&gt;&lt;div style=&quot;font-size: 12px;&quot;&gt;DayOfWeek&lt;/div&gt;&lt;div style=&quot;font-size: 12px;&quot;&gt;Day&lt;/div&gt;&lt;div style=&quot;font-size: 12px;&quot;&gt;Month&lt;/div&gt;&lt;div style=&quot;font-size: 12px;&quot;&gt;Year&lt;/div&gt;&lt;/div&gt;" style="text;html=1;align=center;verticalAlign=middle;whiteSpace=wrap;rounded=0;fontSize=12;" parent="1" vertex="1">
          <mxGeometry x="240.5" y="550" width="119" height="220" as="geometry" />
        </mxCell>
        <mxCell id="zHKEN62nh1VX8-qW5QKt-5" value="&lt;b&gt;DimAircraft&lt;/b&gt;&lt;div style=&quot;font-size: 12px;&quot;&gt;AircraftID PK&lt;/div&gt;&lt;div style=&quot;font-size: 12px;&quot;&gt;&amp;nbsp;Manufacturer&lt;br&gt;&lt;/div&gt;&lt;div style=&quot;font-size: 12px;&quot;&gt;Model&lt;br&gt;&lt;/div&gt;&lt;div style=&quot;font-size: 12px;&quot;&gt;TailNumber&lt;/div&gt;&lt;div style=&quot;font-size: 12px;&quot;&gt;AircraftAge&lt;/div&gt;" style="text;html=1;align=center;verticalAlign=middle;whiteSpace=wrap;rounded=0;fontSize=12;" parent="1" vertex="1">
          <mxGeometry x="240" y="330" width="110" height="170" as="geometry" />
        </mxCell>
        <mxCell id="zHKEN62nh1VX8-qW5QKt-6" value="&lt;div style=&quot;font-size: 12px;&quot;&gt;&lt;b&gt;DimAirport&lt;/b&gt;&lt;/div&gt;&lt;div style=&quot;font-size: 12px;&quot;&gt;IATA_Code PK&lt;/div&gt;&lt;div style=&quot;font-size: 12px;&quot;&gt;AirportName&lt;/div&gt;&lt;div style=&quot;font-size: 12px;&quot;&gt;City&lt;/div&gt;&lt;div style=&quot;font-size: 12px;&quot;&gt;State&lt;/div&gt;&lt;div style=&quot;font-size: 12px;&quot;&gt;Country&lt;/div&gt;&lt;div style=&quot;font-size: 12px;&quot;&gt;Latitude&lt;/div&gt;&lt;div style=&quot;font-size: 12px;&quot;&gt;Longtitude&lt;/div&gt;" style="text;html=1;align=center;verticalAlign=middle;whiteSpace=wrap;rounded=0;fontSize=12;" parent="1" vertex="1">
          <mxGeometry x="489" y="322" width="160" height="200" as="geometry" />
        </mxCell>
        <mxCell id="zHKEN62nh1VX8-qW5QKt-7" value="&lt;b&gt;DimWeather&lt;/b&gt;&lt;div style=&quot;font-size: 12px;&quot;&gt;WeatherID PK&lt;/div&gt;&lt;div style=&quot;font-size: 12px;&quot;&gt;&lt;font style=&quot;font-size: 12px;&quot;&gt;&lt;span style=&quot;font-size: 12px; text-align: start; white-space: pre;&quot;&gt;Date&lt;/span&gt;&lt;/font&gt;&lt;/div&gt;&lt;div style=&quot;font-size: 12px;&quot;&gt;&lt;font style=&quot;font-size: 12px;&quot;&gt;&lt;span style=&quot;text-align: start; white-space: pre;&quot;&gt;AirportID FK&lt;/span&gt;&lt;span style=&quot;font-size: 12px; text-align: start; white-space: pre;&quot;&gt;&lt;br style=&quot;font-size: 12px;&quot;&gt;AvgTemperature&lt;br style=&quot;font-size: 12px;&quot;&gt;&lt;/span&gt;&lt;/font&gt;&lt;span style=&quot;text-align: start; white-space: pre;&quot;&gt;MinTemperature &lt;/span&gt;&lt;font style=&quot;font-size: 12px;&quot;&gt;&lt;span style=&quot;font-size: 12px; text-align: start; white-space: pre;&quot;&gt;&lt;br style=&quot;font-size: 12px;&quot;&gt;&lt;/span&gt;&lt;/font&gt;&lt;span style=&quot;text-align: start; white-space: pre;&quot;&gt;MaxTemperature &lt;/span&gt;&lt;font style=&quot;font-size: 12px;&quot;&gt;&lt;span style=&quot;font-size: 12px; text-align: start; white-space: pre;&quot;&gt;&lt;br style=&quot;font-size: 12px;&quot;&gt;&lt;/span&gt;&lt;/font&gt;&lt;span data-darkreader-inline-bgcolor=&quot;&quot; style=&quot;text-align: left; background-color: rgb(40, 41, 42); --darkreader-inline-bgcolor: #2d2f31;&quot;&gt;TotalPrecipitation&lt;/span&gt;&lt;font style=&quot;font-size: 12px;&quot;&gt;&lt;span style=&quot;font-size: 12px; text-align: start; white-space: pre;&quot;&gt;&lt;br style=&quot;font-size: 12px;&quot;&gt;&lt;/span&gt;&lt;/font&gt;&lt;span data-darkreader-inline-bgcolor=&quot;&quot; style=&quot;text-align: left; background-color: rgb(40, 41, 42); --darkreader-inline-bgcolor: #2d2f31;&quot;&gt;SnowDepth&lt;/span&gt;&lt;font style=&quot;font-size: 12px;&quot;&gt;&lt;span style=&quot;font-size: 12px; text-align: start; white-space: pre;&quot;&gt;&lt;br style=&quot;font-size: 12px;&quot;&gt;&lt;/span&gt;&lt;/font&gt;&lt;span data-darkreader-inline-bgcolor=&quot;&quot; style=&quot;text-align: left; background-color: rgb(40, 41, 42); --darkreader-inline-bgcolor: #2d2f31;&quot;&gt;WindDirection&lt;/span&gt;&lt;/div&gt;&lt;div style=&quot;font-size: 12px;&quot;&gt;&lt;span data-darkreader-inline-bgcolor=&quot;&quot; style=&quot;text-align: left; background-color: rgb(40, 41, 42); --darkreader-inline-bgcolor: #2d2f31;&quot;&gt;AvgWindSpeed&lt;/span&gt;&lt;font style=&quot;font-size: 12px;&quot;&gt;&lt;span style=&quot;font-size: 12px; text-align: start; white-space: pre;&quot;&gt;&lt;br style=&quot;font-size: 12px;&quot;&gt;&lt;/span&gt;&lt;/font&gt;&lt;span data-darkreader-inline-bgcolor=&quot;&quot; style=&quot;text-align: left; background-color: rgb(40, 41, 42); --darkreader-inline-bgcolor: #2d2f31;&quot;&gt;SeaLevelAirPressure&lt;/span&gt;&lt;font style=&quot;font-size: 12px;&quot;&gt;&lt;br style=&quot;font-size: 12px;&quot;&gt;&lt;/font&gt;&lt;/div&gt;&lt;div style=&quot;font-size: 12px;&quot;&gt;&lt;br style=&quot;font-size: 12px;&quot;&gt;&lt;/div&gt;" style="text;html=1;align=center;verticalAlign=middle;whiteSpace=wrap;rounded=0;fontSize=12;fontFamily=Helvetica;fontColor=default;" parent="1" vertex="1">
          <mxGeometry x="434" y="560" width="270" height="270" as="geometry" />
        </mxCell>
      </root>
    </mxGraphModel>
  </diagram>
</mxfile>
